<?xml version="1.0" standalone="no"?><!DOCTYPE svg PUBLIC "-//W3C//DTD SVG 1.1//EN" "http://www.w3.org/Graphics/SVG/1.1/DTD/svg11.dtd"><svg class="icon" width="200px" height="200.00px" viewBox="0 0 1024 1024" version="1.1" xmlns="http://www.w3.org/2000/svg"><path d="M874.816 0H150.186667C68.138667 0 1.002667 67.2 1.002667 149.333333v725.333334c0 82.133333 67.136 149.333333 149.184 149.333333h724.629333C956.864 1024 1024 956.8 1024 874.666667V149.333333c0-82.133333-67.136-149.333333-149.184-149.333333z m-128.448 533.824a408.213333 408.213333 0 0 1-24.128-58.816c3.285333-0.490667 6.570667-1.002667 10.005333-1.002667 37.312 0 67.562667 30.336 67.562667 67.754667s-30.250667 67.754667-67.562667 67.754667a67.669333 67.669333 0 0 1-67.584-67.754667c0-3.925333 0.512-7.701333 1.152-11.456a346.602667 346.602667 0 0 1 55.530667 22.976c5.354667 2.752 13.205333 9.237333 18.730667 3.733333 3.072-3.072 7.125333-6.229333 8.661333-10.432 1.621333-4.416-0.384-8.810667-2.368-12.757333z m-14.357333-409.130667c37.312 0 67.562667 30.336 67.562666 67.754667s-30.250667 67.754667-67.562666 67.754667c-3.306667 0-6.485333-0.512-9.664-0.981334 11.925333-37.12 25.408-61.525333 25.408-61.525333 3.904-7.424-0.042667-11.690667-0.042667-11.690667l-6.272-6.272c-5.205333-5.738667-11.861333-3.818667-17.834667-0.554666-6.421333 3.52-12.714667 7.082667-19.392 10.133333-12.544 5.717333-25.493333 10.432-38.613333 14.634667a68.224 68.224 0 0 1-1.152-11.52 67.626667 67.626667 0 0 1 67.562667-67.733334z m-149.141334 121.301334a288.597333 288.597333 0 0 0 95.466667-25.088c5.504-2.517333 10.645333-5.44 15.936-8.341334 4.906667-2.688 10.389333-4.266667 14.656 0.448l5.141333 5.162667s3.242667 3.52 0.042667 9.621333c0 0-42.624 76.778667-34.538667 158.997334 0 0 0.896 52.864 33.408 117.248 1.642667 3.242667 3.264 6.848 1.941334 10.474666-1.258667 3.456-4.586667 6.058667-7.104 8.576-4.522667 4.544-10.986667-0.789333-15.381334-3.050666a350.848 350.848 0 0 0-14.826666-7.168c-15.189333-6.869333-30.954667-12.864-47.232-16.576-1.365333-0.32-2.794667-0.512-4.16-0.896-0.021333 0-63.189333-18.069333-139.605334 1.152 0 0-28.394667 6.592-60.181333 22.784-3.242667 1.664-5.930667 4.074667-9.450667 5.376-6.933333 2.538667-15.936-4.544-16.704-11.712-0.448-4.181333 2.986667-7.701333 5.12-10.901334 2.496-3.776 4.224-8.106667 6.08-12.224 5.418667-12.096 10.154667-24.533333 14.122667-37.184 6.592-20.992 11.221333-42.773333 12.330667-64.789333 0 0 5.845333-61.632-17.024-121.301333 0 0-11.370667-28.181333-18.56-40.768-0.768-1.344-1.514667-2.474667-1.642667-4.096-0.256-3.093333 1.813333-5.802667 4.16-8.021334 1.045333-1.002667 2.133333-1.898667 3.072-2.688a9.173333 9.173333 0 0 1 6.229333-2.218666c2.581333 0.106667 4.074667 1.472 6.208 2.645333 0 0 59.264 32.896 121.984 34.624 13.589333 0.384 26.858667 1.088 40.512-0.085333z m-196.672 313.002666c4.288-1.578667 7.530667-4.522667 11.498667-6.549333 19.84-10.090667 38.506667-17.088 52.053333-21.546667 0.576 3.562667 1.088 7.146667 1.088 10.858667 0 37.418667-30.250667 67.754667-67.584 67.754667s-67.584-30.336-67.584-67.754667a67.669333 67.669333 0 0 1 67.584-67.754667c4.117333 0 8.128 0.512 12.032 1.216a415.616 415.616 0 0 1-15.829333 41.344c-2.24 5.013333-4.352 10.304-7.381333 14.890667-2.581333 3.904-6.784 8.192-6.229334 13.269333 0.96 8.725333 11.904 17.365333 20.352 14.272z m-3.157333-434.325333a67.669333 67.669333 0 0 1 67.562667 67.754667c0 3.562667-0.512 6.997333-1.045334 10.432-35.093333-11.690667-59.264-25.066667-59.264-25.066667-2.581333-1.429333-4.394667-3.093333-7.552-3.221333a11.093333 11.093333 0 0 0-7.573333 2.688c-1.152 0.96-2.474667 2.048-3.754667 3.264-2.837333 2.709333-5.376 5.994667-5.056 9.749333 0.170667 1.962667 1.066667 3.349333 2.005334 4.970667 8.768 15.317333 22.592 49.6 22.592 49.6 1.792 4.672 3.413333 9.344 4.928 14.016a67.456 67.456 0 0 1-12.864 1.301333c-37.312 0-67.584-30.336-67.584-67.754667s30.272-67.733333 67.605333-67.733333z m462.122667 744.746667H247.914667a23.253333 23.253333 0 0 1 0-46.549334h597.269333c20.373333 0 38.229333-27.178667 38.229333-58.176s-17.877333-58.176-38.229333-58.176H177.642667c-46.72 0-84.736-46.976-84.736-104.725333S130.922667 497.066667 177.642667 497.066667h85.248a23.253333 23.253333 0 0 1 0 46.549333H177.642667c-20.373333 0-38.229333 27.178667-38.229334 58.176s17.877333 58.176 38.229334 58.176h667.52c46.72 0 84.736 46.976 84.736 104.725333s-37.994667 104.725333-84.736 104.725334z" fill="#3478F6" /></svg>