<?xml version="1.0" standalone="no"?><!DOCTYPE svg PUBLIC "-//W3C//DTD SVG 1.1//EN" "http://www.w3.org/Graphics/SVG/1.1/DTD/svg11.dtd"><svg class="icon" width="200px" height="151.37px" viewBox="0 0 1353 1024" version="1.1" xmlns="http://www.w3.org/2000/svg"><path d="M1331.956011 161.684151H1004.217867a21.426322 21.426322 0 1 0 0 42.880836h142.428654V321.394825a111.191333 111.191333 0 0 0-78.37523 60.247434h-77.05018a365.290592 365.290592 0 0 0-273.213794-148.236315V42.880836h142.428654a21.426322 21.426322 0 1 0 0-42.880836H532.697827a21.426322 21.426322 0 1 0 0 42.880836h142.428654v190.525108a365.290592 365.290592 0 0 0-273.213794 148.236315h-116.773453a111.586028 111.586028 0 0 0-78.37523-60.247434V204.536795h142.428654a21.426322 21.426322 0 1 0 0-42.880836H21.454514a21.426322 21.426322 0 1 0 0 42.880836h142.428654V321.394825a111.247718 111.247718 0 1 0 121.227873 158.047315h209.329525a203.972944 203.972944 0 0 0 404.309051 0h169.296134a111.219525 111.219525 0 1 0 121.227873-158.047315V204.536795h142.428654a21.510899 21.510899 0 0 0 21.454514-21.426322 21.285359 21.285359 0 0 0-21.200781-21.426322z m-597.681605 443.524859a53.171109 53.171109 0 1 1 0-75.189473 53.340264 53.340264 0 0 1 0.028192 75.189473z m219.450642 291.820863a444.004132 444.004132 0 0 1-523.309715 0 20.862471 20.862471 0 1 0-24.612077 33.661879 485.870037 485.870037 0 0 0 572.562062 0 20.862471 20.862471 0 1 0-24.612078-33.661879z" fill="#1481EE" /><path d="M489.591451 812.198555a20.777894 20.777894 0 0 0 4.538997 29.151074 335.885785 335.885785 0 0 0 396.133218 0 20.862471 20.862471 0 1 0-24.612077-33.661879 294.35819 294.35819 0 0 1-346.909064 0.140963 20.636931 20.636931 0 0 0-29.151074 4.369842z m202.59151-24.160997a205.326185 205.326185 0 0 0 122.270996-39.864236 20.862471 20.862471 0 1 0-24.612077-33.661879 165.659298 165.659298 0 0 1-195.346031 0 20.862471 20.862471 0 0 0-24.612077 33.661879 206.369309 206.369309 0 0 0 122.299189 39.864236z" fill="#1481EE" /></svg>