<?xml version="1.0" encoding="utf-8"?>
<!-- Generator: Adobe Illustrator 23.1.0, SVG Export Plug-In . SVG Version: 6.00 Build 0)  -->
<svg version="1.1" id="图层_1" xmlns="http://www.w3.org/2000/svg" xmlns:xlink="http://www.w3.org/1999/xlink" x="0px" y="0px"
	 viewBox="0 0 205 205" style="enable-background:new 0 0 205 205;" xml:space="preserve">
<style type="text/css">
	.st0{fill:#507DF6;}
</style>
<g transform="translate(0.000000,205.000000) scale(0.100000,-0.100000)">
	<path class="st0" d="M885,2004c-264-42-481-167-645-371c-116-144-176-288-206-500c-16-107-16-135-5-224c31-255,127-447,307-620
		C497,136,673,52,909,19c146-21,354,8,502,70c207,86,408,275,511,481c144,289,129,670-38,952c-57,97-225,272-319,333
		c-77,50-191,99-291,126C1196,2002,959,2015,885,2004z M1219,1945c407-86,722-435,759-838c45-488-269-923-746-1034
		c-102-23-318-24-414,0c-245,60-450,203-588,408C118,649,64,842,73,1045c7,146,32,248,91,370C358,1818,792,2036,1219,1945z"/>
	<path class="st0" d="M948,1923c15-29,23-103,12-103c-5,0-27,23-47,50c-36,48-70,69-91,56c-5-3-3-34,5-73c8-37,13-83,11-100
		c-4-30-2-33,24-33c29,0,35,9,19,26c-13,13-25,134-14,134c6,0,31-31,58-70c27-38,52-70,57-70s8,45,6,100c-3,97-4,100-26,100
		C944,1940,941,1937,948,1923z"/>
	<path class="st0" d="M1073,1858c-2-45-7-86-13-92c-19-19-10-36,19-36h29l1,77c0,49,6,84,15,99c14,20,14,23,0,28
		C1080,1951,1075,1944,1073,1858z"/>
	<path class="st0" d="M1204,1903c3-10,7-38,10-63c19-161,24-168,73-103c15,20,45,55,65,78c21,23,35,45,31,48c-12,12-43,7-43-7
		c0-7-16-34-36-61c-27-35-39-44-45-34c-12,19-11,96,1,119c11,21,8,24-33,34C1203,1920,1199,1918,1204,1903z"/>
	<path class="st0" d="M700,1882c0-4,6-16,13-27c24-36,59-134,52-145c-13-21-56-31-72-18c-22,18-65,120-59,141c4,16,1,18-22,12
		c-15-4-28-7-29-8s16-39,38-84c42-89,62-104,115-86c51,17,56,39,29,118c-13,39-24,78-25,88C740,1889,700,1899,700,1882z"/>
	<path class="st0" d="M1424,1788c-9-18-32-54-51-80s-32-52-29-57c13-20,118-82,132-77c22,9,16,26-10,26c-27,0-76,35-76,54
		c0,7,9,21,20,31c18,17,21,17,45,1c14-9,25-21,25-26c0-17,27-11,34,6c4,9,5,17,4,18c-2,1-20,9-40,19c-39,17-47,34-26,55
		c20,20,44,14,78-18c37-35,40-36,40-12c-1,13-77,71-122,90C1444,1820,1434,1806,1424,1788z"/>
	<path class="st0" d="M416,1718c-22-12-20-38,2-38c10,0,31-13,47-30c33-35,32-35-48-14c-60,15-60,15-85-9l-25-25l29-15
		c16-9,52-40,80-71l52-55l23,25c19,20,20,24,5,24c-17,0-120,89-112,97c2,3,41-7,86-21c125-40,126-38,31,66
		C447,1712,429,1725,416,1718z"/>
	<path class="st0" d="M1630,1687c0-22-97-127-116-127c-18,0-18-10,2-38c17-25,34-29,34-9c0,16,32,47,48,47c15,0,16-52,1-67
		s-7-57,12-61c10-2,18,10,25,40c8,40,11,43,41,43c44,1,68,25,59,60C1727,1611,1631,1713,1630,1687z M1682,1613c40-36,3-88-40-57
		c-26,18-27,31-5,56C1657,1634,1659,1634,1682,1613z"/>
	<path class="st0" d="M914,1671c-235-38-447-220-523-448c-82-245-25-494,153-681c185-194,467-259,714-166c312,117,494,444,427,763
		c-52,247-246,454-482,515C1129,1674,983,1682,914,1671z M1170,1614c223-52,409-237,466-463c24-96,16-254-19-350
		c-87-244-305-407-562-419c-177-8-340,54-463,176c-130,130-187,265-187,447c0,180,56,315,186,446c74,75,196,142,296,164
		C968,1633,1093,1633,1170,1614z"/>
	<path class="st0" d="M967,1583c-8-10-20-36-26-58c-11-42-31-73-95-150c-32-38-38-50-29-63c14-23,60-18,96,9c50,37,48,7-5-58
		c-27-35-53-63-58-63c-4,0-10,14-14,30c-13,68-178,95-282,46c-67-31-79-62-79-212c0-101,2-114,24-146c45-65,97-82,209-68
		c112,15,138,40,157,155c8,45,72,175,87,175c6,0,7-8,3-17c-24-56-46-160-52-239l-6-91l-176-6c-152-5-241-18-241-33c0-14,30-74,37-74
		c4,1,28,5,53,10s107,12,183,16c114,6,137,5,137-7c0-8,5-66,10-129c12-133,31-190,66-190c37,0,45,27,34,121c-6,46-10,163-10,259
		c-1,151,2,186,21,255c21,75,25,118,17,205c-3,32,0,37,37,55c36,18,60,20,230,20h190l3,26c7,62-26,67-299,48c-107-7-155-7-162,0
		c-8,8-6,31,7,80c14,53,15,74,7,90C1027,1605,989,1607,967,1583z M762,1190c10-12,18-35,18-50c0-34-23-40-147-40h-85l6,32
		c13,64,54,89,135,84C731,1214,748,1208,762,1190z M758,1034c24-7,30-41,12-74c-15-27-79-43-131-31c-48,11-65,25-74,63
		c-6,25-4,27,32,33c21,4,45,8,53,10C677,1040,735,1040,758,1034z"/>
	<path class="st0" d="M1160,1300c-72-9-86-16-100-50c-9-23-9-34,2-57s22-29,68-36c82-13,289-4,325,14c27,13,30,19,30,59
		c0,41-3,46-35,62C1413,1311,1276,1315,1160,1300z M1415,1230c0-12-24-17-125-23c-134-8-170-5-170,18c0,18,33,23,175,21
		C1394,1245,1415,1242,1415,1230z"/>
	<path class="st0" d="M1141,1121c-29-5-52-17-68-35c-26-30-28-44-12-80c20-44,52-49,234-39c149,9,169,12,188,31c26,27,28,85,4,110
		c-15,14-40,17-160,19C1249,1128,1165,1125,1141,1121z M1420,1051c0-12-49-18-187-26c-98-5-123,1-108,25
		C1133,1063,1420,1064,1420,1051z"/>
	<path class="st0" d="M1185,943c-38-2-75-9-81-14c-24-19-3-38,44-41c67-4,54-21-25-34c-89-15-103-21-103-49c0-36,13-38,88-15
		c38,11,72,20,76,20c3,0,6-13,6-28c0-27-4-30-55-42c-76-18-117-45-113-73c4-30,46-34,97-8c65,33,77,29,91-31c23-95,69-162,100-143
		c14,9,12,72-5,135c-22,81-23,79,52,82l67,3l28,85c30,94,32,127,6,144c-14,8-23,5-47-18c-20-19-46-31-76-36c-48-7-55,0-30,34
		c19,25,11,36-23,34C1267,947,1224,944,1185,943z M1370,802c0-27-20-42-57-42c-30,0-33,3-33,30c0,29,2,30,45,30
		C1362,820,1370,817,1370,802z"/>
	<path class="st0" d="M216,1458c18-32,130-188,134-188c3,0,11,10,19,22c12,20,11,24-8,36c-26,18-27,43-3,72c16,20,21,21,41,10
		c19-10,25-9,32,1c5,8,9,16,9,19c0,6-184,40-213,40C215,1470,211,1466,216,1458z M310,1418c0-13-23-5-28,10c-2,7,2,10,12,6
		C303,1431,310,1423,310,1418z"/>
	<path class="st0" d="M1745,1443c-13-12-16-30-13-77c3-52,0-61-15-64c-41-8-62,51-36,100c15,28,6,32-31,13c-22-11-29-20-22-28
		c5-7,12-29,16-50c9-50,37-77,80-77c46,0,56,17,55,88c-1,33,2,65,5,71c25,39,70-44,47-87c-19-35-10-43,23-19c15,11,16,19,6,62
		c-6,27-18,58-27,67C1813,1465,1767,1465,1745,1443z"/>
	<path class="st0" d="M132,1268c-5-7-13-35-17-63c-4-27-9-57-11-66c-4-13,10-18,73-28c43-6,92-14,109-17c31-6,31-6,43,56
		c15,75,2,103-56,119C221,1284,145,1283,132,1268z M280,1227c18-9,26-21,28-46c2-18,0-37-5-42s-44-2-91,7l-83,17l7,31
		c10,50,22,59,73,51C234,1241,266,1233,280,1227z"/>
	<path class="st0" d="M1887,1215c-28-20-156-40-170-26c-27,27-33,9-16-53c10-37,11-38,28-19c21,22,148,49,182,38c19-6,20-4,14,27
		C1916,1225,1909,1231,1887,1215z"/>
	<path class="st0" d="M1896,1051c-4-5-2-12,4-16c5-3,10-15,10-26c0-17-7-19-67-19c-39,0-80,6-95,14c-27,14-27,14-34-19
		c-8-45,1-58,28-44c21,11,154,7,166-5c3-3,0-17-6-31c-10-22-9-25,8-25c21,0,21,3,24,147C1935,1055,1908,1072,1896,1051z"/>
	<path class="st0" d="M110,1018c0-29,9-35,26-19c5,5,41,12,80,15c80,8,98-2,92-51c-3-28-4-28-95-37c-90-9-93-10-93-34
		c0-20,4-23,23-18c12,3,51,9,87,13c92,8,100,14,100,71c0,74-9,81-123,84l-97,3V1018z"/>
	<path class="st0" d="M225,821c-3-5,5-26,17-47c21-36,21-37,3-50c-42-31-75-3-75,62c0,19-5,25-17,22c-23-5-20-31,11-101l24-55l59,23
		c32,13,79,30,105,36l47,12l-16,30c-9,18-18,25-22,19c-9-15-62-34-78-28c-7,3-13,16-13,30c0,13-3,31-6,40C257,832,235,835,225,821z"
		/>
	<path class="st0" d="M1687,814c-3-5-8-26-12-46l-7-37l37,6c35,6,40,3,95-55c32-34,60-58,64-55c14,15,4,38-31,68c-21,18-34,37-30,41
		c5,5,28,9,53,9c24,0,44,5,44,10c0,6,3,20,6,32l6,22l-63-20c-71-22-115-18-140,13C1700,814,1690,819,1687,814z"/>
	<path class="st0" d="M587,454c-4-4-23-7-42-6c-38,2-44-11-19-39c15-17,14-22-20-69c-38-53-43-82-15-88c23-4,145,167,132,187
		C612,457,596,463,587,454z"/>
	<path class="st0" d="M1373,409l-52-30l24-50c12-28,25-52,28-55s23,6,45,21c47,31,76,30,80-3c5-34-26-65-59-58c-32,6-54-11-38-31
		c19-22,74-16,108,13c40,33,43,89,8,122c-29,27-61,28-97,2c-15-11-30-17-34-13c-15,15-3,34,35,53c27,14,39,27,37,38
		C1453,444,1429,442,1373,409z"/>
	<path class="st0" d="M734,315c-10-16-14-34-9-54c8-36,25-51,66-60c39-8,41-23,5-36c-25-9-31-6-57,23c-27,30-29,31-39,12
		c-15-29,24-70,75-77c51-6,87,20,103,75c18,59,15,90-13,117C830,351,757,351,734,315z M834,297c27-20,17-51-19-55c-36-5-59,21-44,49
		C782,313,809,315,834,297z"/>
	<path class="st0" d="M1061,284c-24-31-28-89-8-137c19-44,38-58,86-60c60-2,86,27,85,96c-2,87-32,127-99,127
		C1090,310,1077,305,1061,284z M1164,248c24-34,21-94-6-112c-15-10-26-12-39-6c-20,11-42,70-34,93c3,10,7,24,10,32
		C1102,278,1147,273,1164,248z"/>
</g>
</svg>
